<?xml version="1.0" encoding="utf-8"?>
<!-- Generator: Adobe Illustrator 23.1.1, SVG Export Plug-In . SVG Version: 6.00 Build 0)  -->
<svg version="1.1"
	 id="svg2" xmlns:cc="http://creativecommons.org/ns#" xmlns:dc="http://purl.org/dc/elements/1.1/" xmlns:inkscape="http://www.inkscape.org/namespaces/inkscape" xmlns:rdf="http://www.w3.org/1999/02/22-rdf-syntax-ns#" xmlns:sodipodi="http://sodipodi.sourceforge.net/DTD/sodipodi-0.dtd" xmlns:svg="http://www.w3.org/2000/svg"
	 xmlns="http://www.w3.org/2000/svg" xmlns:xlink="http://www.w3.org/1999/xlink" x="0px" y="0px" viewBox="0 0 181.4 181.4"
	 style="enable-background:new 0 0 181.4 181.4;" xml:space="preserve">
<style type="text/css">
	.st0{fill:#D21034;}
	.st1{fill:#007E3A;}
	.st2{fill:#FFFFFF;}
</style>
<title  id="title3018">Coat of Arms of Maldives</title>
<defs>
	
	
		<inkscape:perspective  id="perspective10" inkscape:persp3d-origin="0.5 : 0.33333333 : 1" inkscape:vp_x="0 : 0.5 : 1" inkscape:vp_y="0 : 1000 : 0" inkscape:vp_z="1 : 0.5 : 1" sodipodi:type="inkscape:persp3d">
		</inkscape:perspective>
</defs>
<sodipodi:namedview  bordercolor="#666666" borderopacity="1" fit-margin-bottom="0" fit-margin-left="0" fit-margin-right="0" fit-margin-top="0" gridtolerance="10" guidetolerance="10" id="namedview4" inkscape:current-layer="g2964" inkscape:cx="168.55441" inkscape:cy="101.38825" inkscape:pageopacity="0" inkscape:pageshadow="2" inkscape:window-height="848" inkscape:window-maximized="1" inkscape:window-width="1600" inkscape:window-x="-8" inkscape:window-y="-8" inkscape:zoom="2.6970053" objecttolerance="10" pagecolor="#ffffff" showgrid="false">
	</sodipodi:namedview>
<path class="st0" d="M137.8,181.4H43.6c-24,0-43.6-19.6-43.6-43.6V43.6C0,19.6,19.6,0,43.6,0h94.1c24,0,43.6,19.6,43.6,43.6v94.1
	C181.4,161.8,161.8,181.4,137.8,181.4z"/>
<path class="st1" d="M127.6,157.7H53.8c-16.5,0-30.1-13.5-30.1-30.1V53.8c0-16.5,13.5-30.1,30.1-30.1h73.8
	c16.5,0,30.1,13.5,30.1,30.1v73.8C157.7,144.2,144.2,157.7,127.6,157.7z"/>
<g>
	<path class="st2" d="M85.6,90.7c0-19.6,13.3-36,31.4-40.7c-3.4-0.9-7-1.4-10.6-1.4c-23.2,0-42.1,18.8-42.1,42.1
		s18.8,42.1,42.1,42.1c3.7,0,7.2-0.5,10.6-1.4C99,126.7,85.6,110.3,85.6,90.7z"/>
</g>
</svg>
