<?xml version="1.0" encoding="utf-8"?>
<!-- Generator: Adobe Illustrator 23.1.1, SVG Export Plug-In . SVG Version: 6.00 Build 0)  -->
<svg version="1.1"
	 id="svg2" xmlns:cc="http://creativecommons.org/ns#" xmlns:dc="http://purl.org/dc/elements/1.1/" xmlns:inkscape="http://www.inkscape.org/namespaces/inkscape" xmlns:rdf="http://www.w3.org/1999/02/22-rdf-syntax-ns#" xmlns:sodipodi="http://sodipodi.sourceforge.net/DTD/sodipodi-0.dtd" xmlns:svg="http://www.w3.org/2000/svg"
	 xmlns="http://www.w3.org/2000/svg" xmlns:xlink="http://www.w3.org/1999/xlink" x="0px" y="0px" viewBox="0 0 181.4 181.4"
	 style="enable-background:new 0 0 181.4 181.4;" xml:space="preserve">
<style type="text/css">
	.st0{fill:#D21034;}
	.st1{fill:#007E3A;}
	.st2{fill:#FFFFFF;}
</style>
<title  id="title3018">Coat of Arms of Maldives</title>
<defs>
	
	
		<inkscape:perspective  id="perspective10" inkscape:persp3d-origin="0.5 : 0.33333333 : 1" inkscape:vp_x="0 : 0.5 : 1" inkscape:vp_y="0 : 1000 : 0" inkscape:vp_z="1 : 0.5 : 1" sodipodi:type="inkscape:persp3d">
		</inkscape:perspective>
</defs>
<sodipodi:namedview  bordercolor="#666666" borderopacity="1" fit-margin-bottom="0" fit-margin-left="0" fit-margin-right="0" fit-margin-top="0" gridtolerance="10" guidetolerance="10" id="namedview4" inkscape:current-layer="g2964" inkscape:cx="168.55441" inkscape:cy="101.38825" inkscape:pageopacity="0" inkscape:pageshadow="2" inkscape:window-height="848" inkscape:window-maximized="1" inkscape:window-width="1600" inkscape:window-x="-8" inkscape:window-y="-8" inkscape:zoom="2.6970053" objecttolerance="10" pagecolor="#ffffff" showgrid="false">
	</sodipodi:namedview>
<path class="st0" d="M59.3,168.4l-46.1-46.1c-17.4-17.4-17.4-45.6,0-63l46.1-46.1c17.4-17.4,45.6-17.4,63,0l46.1,46.1
	c17.4,17.4,17.4,45.6,0,63l-46.1,46.1C104.9,185.6,76.5,185.6,59.3,168.4z"/>
<path class="st1" d="M69.4,148.4L33,112c-11.7-11.7-11.7-30.8,0-42.5L69.4,33c11.7-11.7,30.8-11.7,42.5,0l36.4,36.4
	c11.7,11.7,11.7,30.8,0,42.5L112,148.4C100.3,160.1,81.1,160.1,69.4,148.4z"/>
<g>
	<path class="st2" d="M80.6,90.7c0-19.6,13.3-36,31.4-40.7c-3.4-0.9-7-1.4-10.6-1.4c-23.2,0-42.1,18.8-42.1,42.1
		s18.8,42.1,42.1,42.1c3.7,0,7.2-0.5,10.6-1.4C94,126.7,80.6,110.3,80.6,90.7z"/>
</g>
</svg>
