<?xml version="1.0" encoding="utf-8"?>
<!-- Generator: Adobe Illustrator 23.1.1, SVG Export Plug-In . SVG Version: 6.00 Build 0)  -->
<svg version="1.1" id="Layer_1" xmlns="http://www.w3.org/2000/svg" xmlns:xlink="http://www.w3.org/1999/xlink" x="0px" y="0px"
	 viewBox="0 0 181.42 181.42" style="enable-background:new 0 0 181.42 181.42;" xml:space="preserve">
<style type="text/css">
	.st0{fill:#FFFFFF;}
</style>
<g>
	<path class="st0" d="M32.12,93.11c-4.14-2.37-8.03-5.15-11.72-8.22c-3.99-3.33-7.75-6.9-10.86-11.08
		c-3.01-4.04-4.97-8.58-6.25-13.39c-1.9-7.09-2.35-14.34-2.26-21.65c0.11-10.22,8.2-17.18,16.09-18.44c2.97-0.49,6-0.34,8.96,0.3
		c3.1,0.66,6.13,1.6,8.86,3.24c4.78,2.9,7.02,7.17,6.21,12.74c-0.66,4.48-2.45,8.37-6.02,11.04c-0.53,0.38-1.07,0.73-1.66,1.07
		c-2.73,1.52-5.61,2.46-8.84,1.79c-2.26-0.47-3.78-1.71-4.76-3.74c-1.51-3.16-2.2-6.55-2.63-9.99c-0.06-0.43-0.06-0.9-0.17-1.34
		c-0.04-0.17-0.26-0.3-0.41-0.45c-0.08,0.19-0.23,0.36-0.24,0.55c-0.02,1.05,0,2.11,0,3.16c-0.08,5,1.13,9.78,2.37,14.58
		c2.14,8.22,7.54,14.05,13.55,19.53c1.94,1.77,3.99,3.41,6.04,5.06c0.41,0.32,0.7,0.6,0.7,1.07c0,0.11-0.02,0.24-0.06,0.4
		c-1.32,5.06-1.56,10.23-1.45,15.43c0.02,1.07-0.11,1.13-1.19,0.6C34.92,94.65,33.51,93.9,32.12,93.11z"/>
	<path class="st0" d="M118.32,54.46c1.35,0.71,1.35,1.02,0.87,2.54c-1.11,3.41-3.56,5.72-6.42,7.6c-2.18,1.43-4.55,2.56-7.04,3.48
		c-3.89,1.45-7.69,0.73-11.55,0.34c-2.54-0.28-5.08-0.7-7.62-0.77c-7.36-0.24-14.71-0.66-22.07-0.41
		c-6.89,0.23-13.77,1.05-20.34,3.46c-0.13,0.06-0.28,0.09-0.43,0.13c-1.19,0.41-2.5,1.32-3.54,1.07c-1.07-0.24-1.82-1.67-2.78-2.5
		c-2.45-2.11-4.97-4.14-7.36-6.28c-1.17-1.05-2.18-2.28-3.16-3.5c-0.83-1.07-0.77-1.34,0.28-2.26c2.33-2.07,5.02-3.56,7.86-4.76
		c0.6-0.26,1.22-0.51,1.84-0.75v-0.02c7.6-3.12,15.37-5.7,23.42-7.39c1.11-0.23,2.2-0.45,3.31-0.66c1.11-0.21,2.22-0.4,3.33-0.51
		c3.2-0.36,6.43-0.53,9.65-0.77c6.02-0.08,11.83,0.98,17.5,2.88c6.26,2.11,12.51,4.25,18.74,6.47
		C114.73,52.53,116.53,53.5,118.32,54.46z"/>
	<path class="st0" d="M180.22,41.54c0.6,3.01,0.83,6.1,1.2,9.14c-0.26,7.56-1.79,14.79-4.7,21.73c-2.86,6.77-6.7,12.91-11.7,18.31
		c-1.58,1.71-3.2,3.37-4.89,4.97c-0.87,0.83-0.96,0.73-1.37-0.26c-2.28-5.55-4.33-11.23-6.94-16.61c-1.24-2.56-0.98-4.01,0.88-5.96
		c3.67-3.86,7.11-7.96,10.54-12.04c1.66-1.99,3.54-3.63,5.7-5c2.2-1.41,3.8-3.39,4.65-5.91c0.04-0.11-0.02-0.26-0.04-0.41
		c-0.17,0.04-0.45,0.02-0.51,0.11c-1.99,3.5-5.34,4.63-9.01,5.19c-3.22,0.49-6.96-0.62-7.36-5.29c-0.08-0.98-0.08-1.96-0.06-2.93
		c0.04-1.19,0.11-2.37,0.17-3.56c0.09-1.71,0.38-3.42,0.56-5.15c0.34-3.18,2.41-5.04,5.04-6.45c2.54-1.35,5.29-1.73,8.09-1.26
		c3.5,0.58,6.04,2.69,7.66,5.74C179.07,37.64,179.82,39.58,180.22,41.54z"/>
	<path class="st0" d="M147.33,79.92c2.97,5.51,5.85,11.06,8.26,16.82c1.15,2.67,2.16,5.4,3.07,8.18c1.9,5.87,3.25,11.89,3.99,18
		c0.19,1.66,0.34,3.29,0.62,4.91c1.2,6.68-0.43,12.66-4.33,18.12c-4.8,6.74-11.14,11.72-18.1,15.99
		c-5.76,3.52-12.12,5.21-18.68,6.25c-3.39,0.53-6.87,0.85-10.31,0.83c-6.85-0.04-13.56-1.2-20.15-3.2
		c-8.73-2.65-16.65-6.89-24.19-11.85c-1.11-0.73-2.03-1.73-3.05-2.6c0.64-0.06,1.28-0.11,1.92-0.19c0.64-0.06,1.28-0.11,1.94-0.15
		c7.96-0.45,15.86-1.35,23.48-3.86c2.11-0.71,4.1-1.81,6.15-2.73c1.64-0.75,3.27-1.51,4.89-2.31c0.6-0.3,1.11-0.28,1.69,0.04
		c2.92,1.66,6.19,1.81,9.39,2.05c3.01,0.23,4.85-1.73,6.11-4.2c1.2-2.37,1.77-4.93,2.03-7.58c0.08-0.79,0.11-1.15,0.4-1.28
		c0.21-0.09,0.58-0.06,1.22,0.02c2.3,0.26,4.57,0.66,6.92,0.06c3.65-0.94,4.89-2.88,4.97-6c0.02-0.75,0-1.51,0-1.86
		c0.24-4.08-0.79-7.54-1.84-10.99c-0.15-0.49-0.3-1-0.47-1.49c-1.84-5.68-4.18-11.12-6.85-16.44c-1.05-2.11-1.05-2.16,1.15-2.78
		c2.88-0.83,5.29-2.5,7.64-4.25c3.39-2.54,6.25-5.61,8.86-8.92c0.28-0.36,0.56-0.73,0.87-1.05c0.4-0.45,0.77-0.38,1.05,0.13
		C146.43,78.36,146.92,79.13,147.33,79.92z"/>
	<path class="st0" d="M63.82,38.13c9.2-6.17,18.59-12,28.6-16.72c6.68-3.16,13.51-5.91,20.73-7.6c3.72-0.88,7.51-1.47,11.44-1.39
		c7.36-0.23,13.53,2.67,18.85,7.64c5.61,5.21,8.43,11.7,9.35,19.23c0.3,2.43,0.38,4.83,0.28,7.22c-0.23,4.63-1.19,9.16-2.78,13.6
		c-1.32,3.69-3.65,6.9-6.13,9.93c-5.61,6.87-12.55,12.02-20.39,16.09c-5.63,2.9-11.51,5.08-17.59,6.87
		c-7.45,2.16-15.05,3.56-22.75,4.42c-0.38,0.04-0.73,0.09-1.11,0.15c-2.63,0.41-4.01-0.11-5.15-2.5c-0.58-1.26-1.07-2.62-1.37-3.97
		c-0.09-0.45-0.17-0.92-0.23-1.37c-0.28-2.07-0.13-4.21-0.08-6.32c0.04-1.3,0.17-1.45,1.47-1.35c1.88,0.13,3.72,0.19,5.61,0.11
		c6.51-0.26,12.57-2.16,18.49-4.59c6.23-2.54,12.12-5.7,17.59-9.59c4.1-2.92,7.09-6.72,8.11-11.78c0.28-1.37,0.32-2.82,0.3-4.23
		c-0.06-3.12-2.01-4.87-4.65-6.06c-2.26-1.02-4.67-1.03-7.09-1.02c-0.6,0-1.2,0-1.81,0.02c-0.66,0.02-0.94-0.32-0.92-0.96
		c0-0.98,0.02-1.96-0.04-2.93c-0.24-4.14-2.92-6.58-7.05-6.53c-3.95,0.06-7.49,1.51-10.87,3.35c-1.22,0.68-2.24,0.83-3.59,0.4
		c-4.31-1.37-8.69-1.99-13.3-1.58c-3.69,0.32-7.32,0.66-10.93,1.49c-1.09,0.24-2.16,0.6-3.25,0.88c-0.11,0.04-0.26-0.08-0.41-0.11
		c0.06-0.13,0.08-0.28,0.17-0.36C63.44,38.38,63.63,38.26,63.82,38.13z"/>
	<path class="st0" d="M78.89,117.99c-4.8,0.79-9.61,1.66-14.43,2.35c-3.05,0.45-6.11,0.64-9.18,0.96c-2.31,0.15-3.91-0.73-5.34-2.65
		c-0.98-1.3-1.84-2.62-2.62-4.01c-2.31-4.1-3.8-8.56-4.76-13.24c-1.05-5.19-1.13-10.46-0.87-15.71c0.11-2.13,0.45-4.25,0.71-6.38
		c0.06-0.49,0.11-0.96,0.17-1.45c0.09-0.92,0.68-1.34,1.37-1.62c2.52-0.96,5-2.11,7.6-2.75c6.13-1.52,12.23-0.81,18.23,0.85
		c1.73,0.47,1.69,0.55,1.2,2.33c-0.68,2.48-0.88,4.97-0.66,7.56c0.21,2.48,0.58,4.93,1.07,7.34c1.47,7.22,4.04,14.13,6.72,21.01
		c0.51,1.34,1.03,2.67,1.58,3.99C80.07,117.45,79.74,117.84,78.89,117.99z"/>
	<path class="st0" d="M120.26,128.04c-6.1,4.06-12.49,7.6-19.21,10.61c-8.39,3.74-17.12,6.58-26.24,7.86
		c-2.92,0.41-5.83,0.66-8.77,0.92c-1.56,0.13-3.1,0.26-4.67,0.41c-8.9-0.17-17.59-1.39-25.92-4.44c-3.71-1.35-7.22-3.33-10.63-5.38
		c-6.6-4.01-12.32-9.09-16.86-15.41c-4.99-6.96-7.83-14.64-7.96-23.29c-0.11-7.43,1.58-14.45,4.46-21.22
		c0.13-0.32,0.4-0.58,0.58-0.87c0.26,0.24,0.55,0.47,0.77,0.75c2.07,2.67,3.97,5.47,6.23,7.98c4.14,4.61,9.12,8.01,15.2,9.69
		c1.75,0.49,1.71,0.56,1.47,2.31c-0.36,2.56-0.3,5.1,0.3,7.62c1.11,4.76,4.74,7.77,9.63,8c1.2,0.04,2.71-0.32,3.5,0.28
		c0.28,0.23,0.45,0.58,0.56,1c0.21,0.7,0.26,1.58,0.53,2.28c0.87,2.35,2.01,4.55,3.86,6.28c1.64,1.54,3.78,1.75,5.87,1.9
		c6.04,0.41,12-0.34,17.91-1.56c11.02-2.26,21.54-6.04,31.59-11.04c6.94-3.46,13.53-7.53,19.66-12.3c0.41-0.32,0.81-0.66,1.22-0.98
		c0.47-0.36,0.88-0.23,1.13,0.24c2.05,4.03,4.52,7.85,6.08,12.08c0.36,0.98,0.68,1.98,0.92,3.01c0.13,0.58,0.28,1.17,0.45,1.75"/>
</g>
</svg>
