<svg id="Layer_1" data-name="Layer 1" xmlns="http://www.w3.org/2000/svg" viewBox="0 0 883.33 348.94"><defs><style>.cls-1{fill:none;stroke:#9e9d9e;stroke-miterlimit:10;}</style></defs><title>thundukuna_pattern</title><g id="longer_round_corners" data-name="longer round corners"><g id="rounded_corners" data-name="rounded corners"><path class="cls-1" d="M441.72,291.39l0,0-11.43,11.43a7,7,0,0,1,.68-.78l10.69-10.7L425,274.74h0l0,0Z"/><path class="cls-1" d="M441.72,224.58l0,0L430.27,236a6.65,6.65,0,0,1,.66-.76l10.7-10.7L425,207.92l0,0Z"/><path class="cls-1" d="M441.72,157.77l0,0-11.41,11.41a6.84,6.84,0,0,1,.67-.77l10.69-10.69L425,141.11l0,0Z"/><rect class="cls-1" x="306.06" y="229.48" width="70.87" height="23.62" transform="translate(-70.59 312.14) rotate(-45)"/><path class="cls-1" d="M308.08,291.4,258,341.52a23.61,23.61,0,0,1-33.38,0v0l-16.7-16.71,16.69-16.7,10.7,10.7a8.52,8.52,0,0,0,12,0l44.1-44.1Z"/><path class="cls-1" d="M441.63,90.94l-10.7,10.7a6.65,6.65,0,0,0-.66.76L425,107.66l-16.7,16.7,0,0L391.6,141.06l-16.69-16.69,16.7-16.7L407,92.32l.06-.06,18-18Z"/><path class="cls-1" d="M441.72,91l0,0L430.27,102.4a6.65,6.65,0,0,1,.66-.76l10.7-10.7L425,74.3l0,0Z"/><rect class="cls-1" x="306.06" y="162.67" width="70.86" height="23.61" transform="translate(-23.35 292.57) rotate(-45)"/><rect class="cls-1" x="239.25" y="229.48" width="70.87" height="23.61" transform="translate(-90.16 264.9) rotate(-45)"/><path class="cls-1" d="M241.28,291.39l-50.13,50.12a23.61,23.61,0,0,1-33.39,0h0l-16.7-16.71,16.69-16.7,10.71,10.7a8.51,8.51,0,0,0,12,0l44.1-44.1Z"/><rect class="cls-1" x="306.06" y="95.85" width="70.86" height="23.62" transform="translate(23.89 273) rotate(-45)"/><polygon class="cls-1" points="308.08 157.77 257.98 207.88 241.28 191.18 291.39 141.06 308.08 157.77"/><rect class="cls-1" x="172.43" y="229.48" width="70.87" height="23.62" transform="translate(-109.73 217.65) rotate(-45)"/><path class="cls-1" d="M174.46,291.4l-50.12,50.11a23.61,23.61,0,0,1-33.39,0L74.24,324.8,91,308.1l10.68,10.69a8.51,8.51,0,0,0,12,0l44.1-44.1Z"/><polygon class="cls-1" points="308.08 90.96 257.98 141.07 241.28 124.37 291.39 74.25 308.08 90.96"/><polygon class="cls-1" points="241.28 157.77 191.16 207.88 174.46 191.18 224.57 141.08 241.28 157.77"/><rect class="cls-1" x="105.62" y="229.48" width="70.87" height="23.62" transform="translate(-129.3 170.41) rotate(-45)"/><path class="cls-1" d="M107.65,291.4,57.53,341.52a23.61,23.61,0,0,1-33.39,0L7.42,324.8a23.61,23.61,0,0,1,0-33.39l16.71-16.72,16.7,16.7-10.69,10.7a8.5,8.5,0,0,0,0,12l10.7,10.69L91,274.69Z"/><rect class="cls-1" x="172.43" y="95.84" width="70.87" height="23.62" transform="translate(-15.24 178.52) rotate(-45)"/><rect class="cls-1" x="105.61" y="162.67" width="70.87" height="23.62" transform="translate(-82.06 150.84) rotate(-45)"/><rect class="cls-1" x="38.81" y="229.47" width="70.87" height="23.62" transform="translate(-148.87 123.17) rotate(-45)"/><polygon class="cls-1" points="174.46 90.96 124.35 141.07 107.65 124.37 157.76 74.25 174.46 90.96"/><polygon class="cls-1" points="141.05 157.77 124.36 174.47 107.65 157.77 90.95 141.06 74.25 124.36 90.95 107.67 141.05 157.77"/><rect class="cls-1" x="38.81" y="162.66" width="70.87" height="23.62" transform="translate(-101.63 103.6) rotate(-45)"/><rect class="cls-1" x="38.81" y="95.85" width="70.87" height="23.63" transform="translate(-54.38 84.03) rotate(-45)"/><path class="cls-1" d="M74.24,291.41,57.54,308.1,7.42,258a23.61,23.61,0,0,1,0-33.39l16.71-16.71,16.71,16.7-10.7,10.7a8.51,8.51,0,0,0,0,12L40.83,258l16.7,16.7Z"/><polygon class="cls-1" points="141.06 291.39 124.35 308.1 107.65 291.4 90.95 274.69 74.24 257.99 90.95 241.28 107.65 258 124.36 274.69 141.06 291.39"/><path class="cls-1" d="M74.24,224.58,57.53,241.29,40.84,224.58l-16.71-16.7-16.7-16.7,0,0a23.61,23.61,0,0,1,0-33.38l16.7-16.71,16.72,16.7L30.15,168.46a8.51,8.51,0,0,0,0,12l10.69,10.68,16.69,16.71Z"/><polygon class="cls-1" points="207.87 291.41 191.17 308.1 174.46 291.4 157.76 274.69 141.06 257.99 157.75 241.29 174.46 258 191.16 274.69 207.87 291.41"/><polygon class="cls-1" points="141.06 224.59 124.35 241.29 107.65 224.58 90.95 207.88 74.24 191.18 90.95 174.47 107.64 191.18 124.34 207.88 141.06 224.59"/><path class="cls-1" d="M74.24,157.78l-16.7,16.69-16.7-16.7-16.72-16.7L7.43,124.36h0A23.61,23.61,0,0,1,7.42,91L24.14,74.25,40.84,91l-10.7,10.7a8.51,8.51,0,0,0,0,12l10.69,10.68,16.7,16.72Z"/><polygon class="cls-1" points="274.68 291.4 257.98 308.1 241.28 291.39 224.58 274.69 207.87 257.99 224.57 241.29 274.68 291.4"/><polygon class="cls-1" points="207.87 224.59 191.17 241.28 174.47 224.58 157.76 207.88 141.06 191.17 157.75 174.47 207.87 224.59"/><path class="cls-1" d="M374.9,291.4l-16.7,16.7-33.41,33.41a23.61,23.61,0,0,1-33.4,0l-16.7-16.7,16.7-16.7,10.68,10.69a8.51,8.51,0,0,0,12,0l10.69-10.69,16.71-16.71,16.7-16.7Z"/><polygon class="cls-1" points="274.69 224.59 257.98 241.29 241.28 224.58 224.57 207.88 207.87 191.18 224.57 174.47 274.69 224.59"/><polygon class="cls-1" points="207.87 157.77 191.17 174.47 174.46 157.77 157.75 141.07 141.06 124.36 157.76 107.66 207.87 157.77"/><polygon class="cls-1" points="141.06 90.96 124.35 107.67 107.65 90.96 90.95 74.25 74.24 57.55 90.95 40.84 141.06 90.96"/><path class="cls-1" d="M74.24,91l-16.71,16.7L40.84,91l-16.7-16.7L7.43,57.55l0,0a23.6,23.6,0,0,1,0-33.38L24.13,7.43a23.61,23.61,0,0,1,33.4,0h0L74.24,24.14,57.53,40.85,46.85,30.16a8.51,8.51,0,0,0-12,0l-4.68,4.68a8.5,8.5,0,0,0,0,12Z"/><polygon class="cls-1" points="341.5 291.39 324.79 308.1 308.08 291.4 291.39 274.69 274.67 257.99 291.38 241.28 308.08 258 324.79 274.69 341.5 291.39"/><polygon class="cls-1" points="341.5 224.59 324.79 241.29 308.08 224.58 291.39 207.88 274.67 191.18 291.38 174.47 341.5 224.59"/><polygon class="cls-1" points="274.68 157.77 257.98 174.47 241.28 157.77 224.57 141.08 207.87 124.36 224.57 107.66 274.68 157.77"/><polygon class="cls-1" points="207.87 90.96 191.16 107.66 174.46 90.96 157.76 74.25 141.06 57.55 157.76 40.85 207.87 90.96"/><path class="cls-1" d="M141.05,24.14,124.34,40.85,113.66,30.16a8.51,8.51,0,0,0-12,0L57.53,74.25l-16.7-16.7L91,7.43a23.61,23.61,0,0,1,33.39,0Z"/><polygon class="cls-1" points="408.31 291.4 407.01 292.7 391.61 308.1 374.9 291.4 358.2 274.69 341.5 257.99 358.2 241.29 408.26 291.35 408.31 291.4"/><polygon class="cls-1" points="341.5 157.77 324.8 174.47 308.08 157.77 291.39 141.06 274.69 124.36 291.39 107.66 308.09 124.36 324.79 141.07 341.5 157.77"/><polygon class="cls-1" points="274.68 90.96 257.98 107.67 241.28 90.95 224.57 74.25 207.87 57.55 224.57 40.85 241.28 57.55 257.98 74.25 274.68 90.96"/><path class="cls-1" d="M207.87,24.14l-16.7,16.7L180.48,30.15a8.5,8.5,0,0,0-12,0l-44.1,44.1-16.71-16.7L157.77,7.43a23.61,23.61,0,0,1,33.38,0l0,0Z"/><polygon class="cls-1" points="408.31 224.58 391.61 241.28 374.91 224.58 358.2 207.88 341.5 191.17 358.2 174.47 374.9 191.18 391.61 207.88 408.31 224.58"/><path class="cls-1" d="M475.07,291.35l0,0h0l-16.7,16.69L453,302.78l0,0a7.09,7.09,0,0,0-.58-.65l-10.69-10.7L425,274.69,408.31,258l16.7-16.7,16.65,16.65.06.05,16.65,16.65.06.05Z"/><path class="cls-1" d="M476.33,323.5c-.38.45-.78.88-1.2,1.3l0,0-16.68,16.69a23.52,23.52,0,0,1-19.05,6.79,23.56,23.56,0,0,0,19-6.81L475,324.79Z"/><path class="cls-1" d="M408.31,157.77l-1.3,1.3a.08.08,0,0,0,0,0l-15.36,15.36-16.71-16.7-16.7-16.69-16.7-16.72,16.7-16.7,16.71,16.71,16.69,16.69,16.66,16.66Z"/><polygon class="cls-1" points="341.5 90.96 324.79 107.67 308.08 90.96 291.39 74.25 274.67 57.55 291.38 40.84 341.5 90.96"/><path class="cls-1" d="M274.68,24.14,258,40.85,247.29,30.16a8.51,8.51,0,0,0-12,0l-44.1,44.09-16.7-16.7L224.58,7.43a23.61,23.61,0,0,1,33.39,0Z"/><path class="cls-1" d="M453,236l0,0a7.09,7.09,0,0,0-.58-.65l-10.69-10.7L425,207.88l-16.7-16.7L425,174.47l5.28,5.28,11.37,11.37.05.06,16.65,16.65.05,0,16.65,16.65,0,0-16.71,16.71-5.2,5.19"/><path class="cls-1" d="M476.33,256.68c-.38.45-.78.88-1.2,1.3l-.05,0-16.65,16.66-.06-.05Z"/><path class="cls-1" d="M408.31,91,407,92.26l-.06.06-15.35,15.35L341.5,57.56h0l16.7-16.7,16.7,16.7,16.71,16.7,16.65,16.66Z"/><path class="cls-1" d="M341.5,24.14,324.79,40.86,314.1,30.16a8.51,8.51,0,0,0-12,0L258,74.25l-16.7-16.7L291.39,7.43a23.61,23.61,0,0,1,33.39,0h0Z"/><path class="cls-1" d="M453.11,179.68l5.22-5.22L475,157.77l0-.05-16.65-16.65,0,0-16.66-16.66-.06,0-11.37-11.37h0L425,107.66l-16.7,16.7L425,141.08l16.71,16.69,10.69,10.69a7.92,7.92,0,0,1,.61.69"/><path class="cls-1" d="M476.33,189.87c-.38.45-.78.88-1.2,1.3l-.05.05-16.66,16.66-.05,0Z"/><path class="cls-1" d="M453.13,112.84l5.2-5.19L475,91l0,0L458.42,74.25l-.05,0L441.72,57.55l-.06,0L430.31,46.15l-5.3-5.3-16.7,16.7L425,74.26,441.72,91l10.69,10.7a7.09,7.09,0,0,1,.58.65l0,0"/><path class="cls-1" d="M476.25,123.15c-.35.41-.73.82-1.12,1.21l0,0-16.67,16.67,0,0L475,124.35Z"/><path class="cls-1" d="M408.31,24.14l-16.7,16.7L380.92,30.16a8.48,8.48,0,0,0-12,0l-10.69,10.7L341.5,57.56l-16.7,16.7L308.1,57.55l16.69-16.69,16.72-16.72,16.7-16.71a23.62,23.62,0,0,1,33.39,0h0Z"/><path class="cls-1" d="M440.9,27.7a8.42,8.42,0,0,0-5.2,2.46l-5.44,5.44a6.94,6.94,0,0,1,.68-.77l4.68-4.68A8.4,8.4,0,0,1,440.9,27.7Z"/><path class="cls-1" d="M458.33,40.84,475,24.13,458.33,7.44h0A23.61,23.61,0,0,0,447.74,1.3a23.39,23.39,0,0,1,10.68,6.14l16.65,16.65,0,0Z"/><path class="cls-1" d="M476.27,56.3q-.54.63-1.14,1.23l-.05.06L458.42,74.25l-.05,0Z"/></g><g id="rounded_corners-2" data-name="rounded corners"><path class="cls-1" d="M842.51,291.38l-50.13,50.13a23.61,23.61,0,0,1-33.39,0h0l-16.7-16.71L759,308.08l10.7,10.7a8.51,8.51,0,0,0,12,0l44.1-44.1Z"/><polygon class="cls-1" points="842.5 224.57 792.39 274.68 775.69 257.98 825.79 207.87 842.5 224.57"/><rect class="cls-1" x="773.66" y="162.66" width="70.86" height="23.62" transform="translate(113.61 623.21) rotate(-45)"/><rect class="cls-1" x="706.85" y="229.47" width="70.87" height="23.62" transform="translate(46.8 595.54) rotate(-45)"/><path class="cls-1" d="M708.87,291.39l-50.12,50.12a23.61,23.61,0,0,1-33.38,0l0,0-16.7-16.71,16.7-16.7,10.7,10.69a8.5,8.5,0,0,0,12,0l44.11-44.1Z"/><rect class="cls-1" x="773.66" y="95.84" width="70.87" height="23.61" transform="translate(160.86 603.65) rotate(-45)"/><rect class="cls-1" x="706.85" y="162.66" width="70.86" height="23.61" transform="translate(94.04 575.97) rotate(-45)"/><rect class="cls-1" x="640.03" y="229.47" width="70.87" height="23.61" transform="translate(27.23 548.3) rotate(-45)"/><path class="cls-1" d="M642.06,291.38,591.94,341.5a23.61,23.61,0,0,1-33.39,0h0l-16.7-16.71,16.69-16.7,10.7,10.69a8.51,8.51,0,0,0,12,0l44.1-44.1Z"/><rect class="cls-1" x="706.85" y="95.84" width="70.86" height="23.62" transform="translate(141.29 556.4) rotate(-45)"/><polygon class="cls-1" points="708.87 157.76 658.77 207.87 642.06 191.16 692.18 141.05 708.87 157.76"/><rect class="cls-1" x="573.22" y="229.47" width="70.87" height="23.62" transform="translate(7.66 501.05) rotate(-45)"/><path class="cls-1" d="M575.25,291.39l-16.71,16.7-16.69,16.7L525.13,341.5a23.61,23.61,0,0,1-33.39,0l-16.65-16.66,0,0,1.29-1.29,15.41-15.41,10.69,10.69a8.5,8.5,0,0,0,12,0l27.4-27.4,16.7-16.7Z"/><polygon class="cls-1" points="708.87 90.95 658.77 141.06 642.06 124.36 692.18 74.24 708.87 90.95"/><polygon class="cls-1" points="642.06 157.76 591.95 207.87 575.25 191.17 625.36 141.06 642.06 157.76"/><rect class="cls-1" x="506.41" y="229.47" width="70.87" height="23.62" transform="translate(-11.91 453.81) rotate(-45)"/><path class="cls-1" d="M441.62,291.38l-10.69,10.7a7,7,0,0,0-.68.78L425,308.1l-16.71,16.7,0,.05L391.6,341.52a23.61,23.61,0,0,1-33.39,0h0L341.5,324.8l16.7-16.7,10.7,10.69a8.5,8.5,0,0,0,12,0l10.69-10.69L407,292.7l1.3-1.3L425,274.74Z"/><path class="cls-1" d="M408.31,291.4l-1.3,1.3c.38-.45.78-.88,1.2-1.3l.05,0,16.66-16.67.06.06Z"/><path class="cls-1" d="M508.44,291.39,476.33,323.5,475,324.79l-16.72,16.72a23.56,23.56,0,0,1-19,6.81l-1.12-.13c-.72-.11-1.43-.25-2.14-.42-.25-.06-.51-.12-.76-.2-.48-.13-.95-.28-1.42-.44s-.82-.29-1.22-.46-.7-.29-1-.46c0,0,0,0,0,0-.34-.16-.67-.33-1-.51-.57-.3-1.13-.64-1.68-1l-.55-.37a23.44,23.44,0,0,1-3.38-2.81l0,0-16.7-16.71L425,308.1l5.25,5.26,0,0,5.41,5.41a8.5,8.5,0,0,0,11.26.67,6.84,6.84,0,0,0,.77-.67l4.68-4.68a6.84,6.84,0,0,0,.67-.77l5.25-5.25L475,291.4h0l0,0,16.67-16.67Z"/><path class="cls-1" d="M430.64,345.7c.34.18.67.35,1,.51-.3-.13-.6-.28-.89-.44Z"/><path class="cls-1" d="M431.65,346.21c-.3-.13-.6-.28-.89-.44a23.07,23.07,0,0,1-5.83-4.26l-16.66-16.66,0-.05L425,341.51l0,0a23.44,23.44,0,0,0,3.38,2.81l.55.37c.55.35,1.11.69,1.68,1C431,345.88,431.31,346.05,431.65,346.21Z"/><path class="cls-1" d="M438.24,348.19c-.72-.11-1.43-.24-2.14-.42C436.81,347.94,437.52,348.08,438.24,348.19Z"/><path class="cls-1" d="M453.08,313.34a6.84,6.84,0,0,1-.67.77l-4.68,4.68a6.84,6.84,0,0,1-.77.67Z"/><rect class="cls-1" x="573.22" y="95.83" width="70.87" height="23.62" transform="translate(102.16 461.91) rotate(-45)"/><rect class="cls-1" x="506.4" y="162.66" width="70.87" height="23.62" transform="translate(35.33 434.23) rotate(-45)"/><path class="cls-1" d="M508.44,224.57l-50.07,50.07L441.72,258l10.69-10.68a6.62,6.62,0,0,0,.7-.82l0,0,5.2-5.19L475,224.57l0,0,16.67-16.66Z"/><path class="cls-1" d="M458.37,274.64l0,0L441.62,258l0,0,11.45-11.45a6.62,6.62,0,0,1-.7.82L441.72,258Z"/><polygon class="cls-1" points="575.24 90.95 525.14 141.06 508.44 124.36 558.55 74.24 575.24 90.95"/><polygon class="cls-1" points="541.84 157.76 525.15 174.46 525.14 174.46 508.44 157.76 491.74 141.05 475.04 124.35 476.25 123.15 476.37 123.02 491.74 107.66 508.44 124.36 541.84 157.76"/><path class="cls-1" d="M508.44,157.76l-50.07,50.07-16.65-16.65,10.69-10.69a6.54,6.54,0,0,0,.7-.81l5.22-5.22L475,157.77l0-.05,16.67-16.67Z"/><path class="cls-1" d="M458.37,207.83l0,0-16.7-16.71,0,0,11.44-11.44a6.54,6.54,0,0,1-.7.81l-10.69,10.69Z"/><path class="cls-1" d="M508.44,91l-16.7,16.71L476.37,123l-.12.13-1.21,1.2L458.38,141l-16.66-16.66,10.69-10.68a6.27,6.27,0,0,0,.68-.8l0,0,5.2-5.19,16.74-16.74,16.67-16.67Z"/><path class="cls-1" d="M458.38,141l-.05,0-16.71-16.72,0,0,11.43-11.43a6.27,6.27,0,0,1-.68.8l-10.69,10.68Z"/><path class="cls-1" d="M441.63,224.57l-10.7,10.7a6.65,6.65,0,0,0-.66.76L425,241.29,408.31,258l0,0L391.6,274.69,374.9,258,425,207.92Z"/><path class="cls-1" d="M407.08,225.81q.54-.63,1.14-1.23l0-.05,16.66-16.66.05,0Z"/><path class="cls-1" d="M430.27,236,425,241.29,408.31,258l0,0,16.65,16.66.06.05h0l16.64,16.64.06.05L453,302.74l0,0,5.31,5.31L475,291.4h0l-16.7-16.71L441.62,258,430.93,247.3a6.38,6.38,0,0,1-.65-.74"/><polygon class="cls-1" points="541.85 291.38 525.14 308.09 508.44 291.39 491.74 274.68 475.08 258.03 475.03 257.98 491.74 241.27 508.44 257.99 525.15 274.68 541.85 291.38"/><path class="cls-1" d="M441.63,157.76l-10.69,10.69a6.84,6.84,0,0,0-.67.77L425,174.47l-16.71,16.71,0,0-16.66,16.66-16.71-16.7L407,159.11a.08.08,0,0,1,0,0l1.3-1.3L425,141.11Z"/><path class="cls-1" d="M408.31,157.77l-1.3,1.3c.38-.45.78-.88,1.2-1.3l.05-.05,16.66-16.66.06.05Z"/><path class="cls-1" d="M430.3,179.75a7.27,7.27,0,0,0,.64.73l10.69,10.68,16.7,16.71L475,224.57l-16.71,16.71L453,236l0,0-11.31-11.31-.05-.05L425,207.92l-.05,0-16.65-16.65,0,0L425,174.47l5.25-5.25"/><polygon class="cls-1" points="608.65 291.4 591.96 308.09 575.24 291.39 558.55 274.68 541.85 257.98 558.54 241.28 575.24 257.99 591.95 274.68 608.65 291.4"/><polygon class="cls-1" points="541.85 224.58 525.14 241.28 508.44 224.57 491.74 207.87 475.08 191.22 475.03 191.17 491.74 174.46 508.43 191.17 525.13 207.87 541.85 224.58"/><path class="cls-1" d="M425,74.3l-18,18c.37-.45.78-.89,1.2-1.31l0,0,16.67-16.67Z"/><path class="cls-1" d="M430.27,102.4,425,107.66l-16.7,16.7,0,0,16.65,16.66.06.05,16.65,16.65.05.05L453,169.15l5.31,5.31L475,157.77l-16.7-16.7-16.71-16.72-10.69-10.68a7.27,7.27,0,0,1-.64-.73h0"/><polygon class="cls-1" points="675.47 291.39 658.77 308.09 642.06 291.38 625.37 274.68 608.65 257.98 625.36 241.28 675.47 291.39"/><polygon class="cls-1" points="608.65 224.57 591.96 241.27 575.26 224.57 558.55 207.87 541.85 191.16 558.54 174.46 608.65 224.57"/><path class="cls-1" d="M775.68,291.39l-50.11,50.1a23.6,23.6,0,0,1-33.39,0h0l-16.71-16.7,16.7-16.7,10.69,10.69a8.5,8.5,0,0,0,12,0l44.1-44.1Z"/><polygon class="cls-1" points="675.48 224.57 658.77 241.28 642.06 224.57 625.36 207.87 608.65 191.17 625.36 174.46 675.48 224.57"/><polygon class="cls-1" points="608.66 157.76 591.96 174.46 575.24 157.76 558.54 141.06 541.85 124.35 558.55 107.65 608.66 157.76"/><polygon class="cls-1" points="541.85 90.95 525.14 107.66 491.74 74.24 475.08 57.59 475.03 57.54 491.74 40.83 508.44 57.54 525.15 74.24 541.85 90.95"/><path class="cls-1" d="M475,24.13l-16.7,16.71L453,35.53a6.55,6.55,0,0,0-.61-.69l-4.68-4.68a8.39,8.39,0,0,0-5.28-2.46,8,8,0,0,0-1.55,0,8.4,8.4,0,0,0-5.28,2.45l-4.68,4.68a6.94,6.94,0,0,0-.68.77L408.31,57.55l0,0L391.61,74.25,374.9,57.55,425,7.43a21.74,21.74,0,0,1,1.68-1.52c.17-.15.34-.29.52-.42l.48-.37c.56-.42,1.14-.8,1.73-1.16.29-.18.59-.35.89-.51l.06,0,.61-.32.54-.27.6-.27.37-.16c.26-.12.53-.22.8-.32s.67-.25,1-.36.68-.22,1-.31.69-.19,1-.27.69-.15,1-.21c.7-.13,1.4-.23,2.1-.29.35,0,.71-.07,1.06-.08l1.07,0c.4,0,.81,0,1.21,0,.72,0,1.44.1,2.16.2a25.37,25.37,0,0,1,2.73.55,23.61,23.61,0,0,1,10.58,6.13h0Z"/><path class="cls-1" d="M407,25.44c.38-.45.78-.88,1.2-1.3l.05-.05L424.92,7.43A23.46,23.46,0,0,1,442.85.55,23.53,23.53,0,0,0,425,7.43Z"/><path class="cls-1" d="M453,35.53l-5.38-5.38a8.46,8.46,0,0,0-5.19-2.45,8.39,8.39,0,0,1,5.28,2.46l4.68,4.68A6.55,6.55,0,0,1,453,35.53Z"/><path class="cls-1" d="M475,91l-16.7,16.7L453,102.33l0,0L424.93,74.24,408.27,57.59l0,0L425,40.85l5.3,5.3a8.47,8.47,0,0,0,.63.7l10.68,10.69,16.71,16.7Z"/><polygon class="cls-1" points="475.04 24.13 458.33 40.84 475.03 24.13 475.04 24.13"/><polygon class="cls-1" points="742.28 291.38 725.57 308.09 708.87 291.39 692.18 274.68 675.46 257.98 692.17 241.27 708.87 257.99 725.58 274.68 742.28 291.38"/><polygon class="cls-1" points="742.28 224.57 725.57 241.28 708.87 224.57 692.18 207.87 675.46 191.17 692.17 174.46 742.28 224.57"/><polygon class="cls-1" points="675.47 157.76 658.77 174.46 642.06 157.76 625.36 141.06 608.65 124.35 625.36 107.65 675.47 157.76"/><polygon class="cls-1" points="608.65 90.95 591.95 107.65 575.24 90.95 558.55 74.24 541.85 57.54 558.55 40.84 608.65 90.95"/><path class="cls-1" d="M541.84,24.13,525.13,40.84,514.45,30.15a8.51,8.51,0,0,0-12,0L458.37,74.2,441.72,57.55l10.69-10.69a6.54,6.54,0,0,0,.7-.81l5.22-5.21L475,24.13l0,0L491.74,7.42a23.61,23.61,0,0,1,33.39,0Z"/><path class="cls-1" d="M441.72,57.55,458.37,74.2l0,0-16.71-16.7,0,0,11.45-11.45a6.54,6.54,0,0,1-.7.81Z"/><polygon class="cls-1" points="475.04 24.13 458.33 40.84 475.03 24.13 475.04 24.13"/><polygon class="cls-1" points="809.1 291.39 792.39 308.09 775.68 291.39 758.98 274.68 742.28 257.98 758.98 241.28 809.1 291.39"/><polygon class="cls-1" points="742.29 157.76 725.59 174.46 708.87 157.76 692.18 141.05 675.48 124.35 692.18 107.65 708.88 124.35 725.57 141.06 742.29 157.76"/><polygon class="cls-1" points="675.47 90.95 658.77 107.66 642.06 90.94 625.36 74.24 608.65 57.54 625.36 40.84 642.06 57.53 658.77 74.24 675.47 90.95"/><path class="cls-1" d="M608.66,24.13,592,40.83,581.27,30.14a8.51,8.51,0,0,0-12,0l-44.1,44.1L508.43,57.53,558.55,7.42a23.61,23.61,0,0,1,33.39,0l0,0Z"/><polygon class="cls-1" points="809.1 224.57 792.39 241.27 775.69 224.57 758.98 207.87 742.28 191.16 758.98 174.46 775.69 191.17 792.39 207.87 809.1 224.57"/><path class="cls-1" d="M875.92,324.79,859.2,341.52a23.62,23.62,0,0,1-33.39,0l0,0L809.1,324.79l16.7-16.7,10.69,10.69a8.5,8.5,0,0,0,12,0l4.68-4.68a8.5,8.5,0,0,0,0-12l-10.68-10.7-16.7-16.7L809.09,258l16.7-16.7L842.51,258l16.7,16.7,16.69,16.71h0A23.6,23.6,0,0,1,875.92,324.79Z"/><polygon class="cls-1" points="809.1 157.76 792.39 174.46 775.68 157.76 758.98 141.06 742.28 124.35 758.98 107.65 809.1 157.76"/><polygon class="cls-1" points="742.28 90.95 725.57 107.66 708.87 90.95 692.18 74.24 675.46 57.54 692.17 40.83 742.28 90.95"/><path class="cls-1" d="M675.47,24.13,658.76,40.84,648.08,30.15a8.5,8.5,0,0,0-12,0L592,74.24l-16.7-16.7L625.37,7.42a23.61,23.61,0,0,1,33.39,0Z"/><path class="cls-1" d="M875.92,258l-16.71,16.71L842.51,258l10.68-10.69a8.5,8.5,0,0,0,0-12l-10.69-10.7-16.71-16.7-16.7-16.7,16.71-16.71,50.12,50.12A23.61,23.61,0,0,1,875.92,258Z"/><polygon class="cls-1" points="809.1 90.95 792.39 107.66 775.68 90.95 758.98 74.24 742.28 57.54 758.98 40.84 775.69 57.54 792.39 74.24 809.1 90.95"/><path class="cls-1" d="M742.29,24.13,725.57,40.85l-10.69-10.7a8.49,8.49,0,0,0-12,0L658.77,74.24,642.06,57.53,692.18,7.42a23.61,23.61,0,0,1,33.39,0h0Z"/><path class="cls-1" d="M875.91,191.16,859.2,207.87l-16.7-16.71,10.69-10.68a8.51,8.51,0,0,0,0-12L842.5,157.76l-16.71-16.69-16.7-16.72,16.7-16.7,16.72,16.7,16.69,16.71,16.7,16.7h0A23.61,23.61,0,0,1,875.91,191.16Z"/><path class="cls-1" d="M875.91,124.35,859.2,141.06l-16.69-16.71,10.68-10.68a8.51,8.51,0,0,0,0-12L842.5,90.94l-16.69-16.7-16.72-16.7,16.7-16.7,16.72,16.7,16.69,16.7L875.9,91h0A23.61,23.61,0,0,1,875.91,124.35Z"/><path class="cls-1" d="M809.1,24.13l-16.71,16.7L781.71,30.14a8.51,8.51,0,0,0-12,0l-44.1,44.1-16.7-16.7L759,7.42a23.6,23.6,0,0,1,33.38,0h0Z"/><path class="cls-1" d="M875.92,57.52,859.2,74.24l-16.69-16.7L853.2,46.85a8.5,8.5,0,0,0,0-12l-4.69-4.69a8.5,8.5,0,0,0-12,0l-44.1,44.1-16.7-16.7L825.81,7.42a23.6,23.6,0,0,1,33.39,0h0l16.72,16.7h0A23.61,23.61,0,0,1,875.92,57.52Z"/></g></g></svg>