<?xml version="1.0" encoding="utf-8"?>
<!-- Generator: Adobe Illustrator 23.1.1, SVG Export Plug-In . SVG Version: 6.00 Build 0)  -->
<svg version="1.1" id="Layer_1" xmlns="http://www.w3.org/2000/svg" xmlns:xlink="http://www.w3.org/1999/xlink" x="0px" y="0px"
	 viewBox="0 0 348.9 883.3" style="enable-background:new 0 0 348.9 883.3;" xml:space="preserve">
<style type="text/css">
	.st0{fill:none;stroke:#9E9D9E;stroke-miterlimit:10;}
</style>
<title>thundukuna_pattern</title>
<g id="longer_round_corners">
	<g id="rounded_corners">
		<path class="st0" d="M57.5,441.7L57.5,441.7l-11.4-11.4c0.3,0.2,0.5,0.4,0.8,0.7L57.5,441.7L74.2,425l0,0l0,0L57.5,441.7z"/>
		<path class="st0" d="M124.4,441.7L124.4,441.7l-11.4-11.5c0.3,0.2,0.5,0.4,0.8,0.7L124.4,441.7L141,425l0,0L124.4,441.7z"/>
		<path class="st0" d="M191.2,441.7L191.2,441.7l-11.4-11.4c0.3,0.2,0.5,0.4,0.8,0.7L191.2,441.7l16.7-16.7l0,0L191.2,441.7z"/>
		
			<rect x="95.8" y="306.1" transform="matrix(0.7071 -0.7071 0.7071 0.7071 -209.9443 176.1428)" class="st0" width="23.6" height="70.9"/>
		<path class="st0" d="M57.5,308.1L7.4,258c-9.2-9.2-9.2-24.2,0-33.4l0,0l16.7-16.7l16.7,16.7l-10.7,10.7c-3.3,3.3-3.3,8.7,0,12
			l44.1,44.1L57.5,308.1z"/>
		<path class="st0" d="M258,441.6l-10.7-10.7c-0.2-0.2-0.5-0.5-0.8-0.7l-5.3-5.3l-16.7-16.7l0,0l-16.7-16.7l16.7-16.7l16.7,16.7
			l15.4,15.4l0.1,0.1l18,18L258,441.6z"/>
		<path class="st0" d="M257.9,441.7L257.9,441.7l-11.4-11.5c0.3,0.2,0.5,0.4,0.8,0.7L257.9,441.7l16.7-16.7l0,0L257.9,441.7z"/>
		
			<rect x="162.7" y="306.1" transform="matrix(0.7071 -0.7071 0.7071 0.7071 -190.3693 223.3833)" class="st0" width="23.6" height="70.9"/>
		
			<rect x="95.8" y="239.2" transform="matrix(0.7071 -0.7071 0.7071 0.7071 -162.6982 156.5743)" class="st0" width="23.6" height="70.9"/>
		<path class="st0" d="M57.5,241.3L7.4,191.1c-9.2-9.2-9.2-24.2,0-33.4c0,0,0,0,0,0l0,0l16.7-16.7l16.7,16.7l-10.7,10.7
			c-3.3,3.3-3.3,8.7,0,12l44.1,44.1L57.5,241.3z"/>
		
			<rect x="229.5" y="306.1" transform="matrix(0.7071 -0.7071 0.7071 0.7071 -170.7958 270.6273)" class="st0" width="23.6" height="70.9"/>
		<polygon class="st0" points="191.2,308.1 141.1,258 157.8,241.3 207.9,291.4 		"/>
		
			<rect x="95.8" y="172.4" transform="matrix(0.7071 -0.7071 0.7071 0.7071 -115.4534 137.0028)" class="st0" width="23.6" height="70.9"/>
		<path class="st0" d="M57.5,174.5L7.4,124.3c-9.2-9.2-9.2-24.2,0-33.4c0,0,0,0,0,0l16.7-16.7L40.8,91l-10.7,10.7
			c-3.3,3.3-3.3,8.7,0,12l44.1,44.1L57.5,174.5z"/>
		<polygon class="st0" points="258,308.1 207.9,258 224.6,241.3 274.7,291.4 		"/>
		<polygon class="st0" points="191.2,241.3 141.1,191.2 157.8,174.5 207.9,224.6 		"/>
		
			<rect x="95.8" y="105.6" transform="matrix(0.7071 -0.7071 0.7071 0.7071 -68.2108 117.4328)" class="st0" width="23.6" height="70.9"/>
		<path class="st0" d="M57.5,107.6L7.4,57.5c-9.2-9.2-9.2-24.2,0-33.4c0,0,0,0,0,0L24.1,7.4c9.2-9.2,24.2-9.2,33.4,0c0,0,0,0,0,0
			l16.7,16.7L57.5,40.8L46.8,30.1c-3.3-3.3-8.7-3.3-12,0L24.2,40.8L74.2,91L57.5,107.6z"/>
		
			<rect x="229.5" y="172.4" transform="matrix(0.7071 -0.7071 0.7071 0.7071 -76.3092 231.4896)" class="st0" width="23.6" height="70.9"/>
		
			<rect x="162.6" y="105.6" transform="matrix(0.7071 -0.7071 0.7071 0.7071 -48.6379 164.6683)" class="st0" width="23.6" height="70.9"/>
		
			<rect x="95.8" y="38.8" transform="matrix(0.7071 -0.7071 0.7071 0.7071 -20.9612 97.8658)" class="st0" width="23.6" height="70.9"/>
		<polygon class="st0" points="258,174.5 207.9,124.3 224.6,107.6 274.7,157.8 		"/>
		<polygon class="st0" points="191.2,141 174.5,124.4 191.2,107.6 207.9,90.9 224.6,74.2 241.3,90.9 		"/>
		
			<rect x="162.7" y="38.8" transform="matrix(0.7071 -0.7071 0.7071 0.7071 -1.3912 145.1083)" class="st0" width="23.6" height="70.9"/>
		
			<rect x="229.5" y="38.8" transform="matrix(0.7071 -0.7071 0.7071 0.7071 18.1682 192.3523)" class="st0" width="23.6" height="70.9"/>
		<path class="st0" d="M57.5,74.2L40.8,57.5L90.9,7.4c9.2-9.2,24.2-9.2,33.4,0c0,0,0,0,0,0L141,24.1l-16.7,16.7l-10.7-10.7
			c-3.3-3.3-8.7-3.3-12,0L90.9,40.8L74.2,57.5L57.5,74.2z"/>
		<polygon class="st0" points="57.5,141.1 40.8,124.3 57.5,107.6 74.2,90.9 90.9,74.2 107.7,90.9 90.9,107.6 74.2,124.4 		"/>
		<path class="st0" d="M124.4,74.2l-16.7-16.7l16.7-16.7l16.7-16.7l16.7-16.7l0,0c9.2-9.2,24.2-9.2,33.4,0l16.7,16.7l-16.7,16.7
			l-10.7-10.7c-3.3-3.3-8.7-3.3-12,0l-10.7,10.7l-16.7,16.7L124.4,74.2z"/>
		<polygon class="st0" points="57.5,207.9 40.8,191.2 57.5,174.5 74.2,157.8 90.9,141.1 107.6,157.7 90.9,174.5 74.2,191.2 		"/>
		<polygon class="st0" points="124.3,141.1 107.6,124.3 124.4,107.6 141.1,90.9 157.8,74.2 174.5,90.9 157.8,107.6 141.1,124.3 		
			"/>
		<path class="st0" d="M191.2,74.2l-16.7-16.7l16.7-16.7l16.7-16.7l16.7-16.7l0,0c9.2-9.2,24.1-9.2,33.4,0l16.8,16.7l-16.8,16.7
			l-10.7-10.7c-3.3-3.3-8.7-3.3-12,0l-10.7,10.7l-16.7,16.7L191.2,74.2z"/>
		<polygon class="st0" points="57.5,274.7 40.8,258 57.5,241.3 74.2,224.6 90.9,207.9 107.6,224.6 		"/>
		<polygon class="st0" points="124.3,207.9 107.7,191.2 124.4,174.5 141.1,157.8 157.8,141.1 174.5,157.7 		"/>
		<path class="st0" d="M57.5,374.9l-16.7-16.7L7.4,324.8c-9.2-9.2-9.2-24.2,0-33.4c0,0,0,0,0,0l16.7-16.7l16.7,16.7l-10.7,10.7
			c-3.3,3.3-3.3,8.7,0,12l10.7,10.7l16.7,16.7l16.7,16.7L57.5,374.9z"/>
		<polygon class="st0" points="124.3,274.7 107.6,258 124.4,241.3 141.1,224.6 157.8,207.9 174.5,224.6 		"/>
		<polygon class="st0" points="191.2,207.9 174.5,191.2 191.2,174.5 207.9,157.7 224.6,141.1 241.3,157.8 		"/>
		<polygon class="st0" points="258,141.1 241.3,124.3 258,107.6 274.7,90.9 291.4,74.2 308.1,90.9 		"/>
		<path class="st0" d="M257.9,74.2l-16.7-16.7l16.7-16.7l16.7-16.7l16.8-16.7l0,0c9.2-9.2,24.2-9.2,33.4,0c0,0,0,0,0,0l16.7,16.7
			c9.2,9.2,9.2,24.2,0,33.4c0,0,0,0,0,0l0,0l-16.7,16.7l-16.7-16.7l10.7-10.7c3.3-3.3,3.3-8.7,0-12l-4.7-4.7c-3.3-3.3-8.7-3.3-12,0
			L257.9,74.2z"/>
		<polygon class="st0" points="57.5,341.5 40.8,324.8 57.5,308.1 74.2,291.4 90.9,274.7 107.7,291.4 90.9,308.1 74.2,324.8 		"/>
		<polygon class="st0" points="124.3,341.5 107.6,324.8 124.4,308.1 141.1,291.4 157.8,274.7 174.5,291.4 		"/>
		<polygon class="st0" points="191.2,274.7 174.5,258 191.2,241.3 207.9,224.6 224.6,207.9 241.3,224.6 		"/>
		<polygon class="st0" points="258,207.9 241.3,191.2 258,174.5 274.7,157.8 291.4,141.1 308.1,157.8 		"/>
		<path class="st0" d="M324.8,141l-16.7-16.7l10.7-10.7c3.3-3.3,3.3-8.7,0-12l-44.1-44.1l16.7-16.7L341.5,91
			c9.2,9.2,9.2,24.2,0,33.4c0,0,0,0,0,0L324.8,141z"/>
		<polygon class="st0" points="57.5,408.3 56.2,407 40.8,391.6 57.5,374.9 74.2,358.2 90.9,341.5 107.6,358.2 57.6,408.3 		"/>
		<polygon class="st0" points="191.2,341.5 174.5,324.8 191.2,308.1 207.9,291.4 224.6,274.7 241.3,291.4 224.6,308.1 207.9,324.8 
					"/>
		<polygon class="st0" points="258,274.7 241.3,258 258,241.3 274.7,224.6 291.4,207.9 308.1,224.6 291.4,241.3 274.7,258 		"/>
		<path class="st0" d="M324.8,207.9l-16.7-16.7l10.7-10.7c3.3-3.3,3.3-8.7,0-12l-44.1-44.1l16.7-16.7l50.1,50.1
			c9.2,9.2,9.2,24.2,0,33.4l0,0L324.8,207.9z"/>
		<polygon class="st0" points="124.4,408.3 107.7,391.6 124.4,374.9 141.1,358.2 157.8,341.5 174.5,358.2 157.8,374.9 141.1,391.6 
					"/>
		<path class="st0" d="M57.6,475.1L57.6,475.1L57.6,475.1l-16.7-16.7l5.3-5.4l0,0c0.2-0.2,0.4-0.4,0.6-0.6l10.7-10.7L74.2,425
			l16.7-16.7l16.7,16.7L91,441.7l0,0.1l-16.6,16.6l0,0.1L57.6,475.1z"/>
		<path class="st0" d="M25.4,476.3c-0.5-0.4-0.9-0.8-1.3-1.2l0,0L7.4,458.4c-5-5-7.5-12-6.8-19c-0.7,7,1.8,14,6.8,19L24.1,475
			L25.4,476.3z"/>
		<path class="st0" d="M191.2,408.3l-1.3-1.3l0,0l-15.4-15.4l16.7-16.7l16.7-16.7l16.7-16.7l16.7,16.7l-16.7,16.7l-16.7,16.7
			L191.2,408.3L191.2,408.3z"/>
		<polygon class="st0" points="258,341.5 241.3,324.8 258,308.1 274.7,291.4 291.4,274.7 308.1,291.4 		"/>
		<path class="st0" d="M324.8,274.7L308.1,258l10.7-10.7c3.3-3.3,3.3-8.7,0-12l-44.1-44.1l16.7-16.7l50.1,50.1
			c9.2,9.2,9.2,24.2,0,33.4c0,0,0,0,0,0L324.8,274.7z"/>
		<path class="st0" d="M112.9,453L112.9,453c0.2-0.2,0.4-0.4,0.6-0.6l10.7-10.7l16.8-16.7l16.7-16.7l16.7,16.7l-5.3,5.3l-11.4,11.4
			l-0.1,0l-16.6,16.6v0L124.5,475l0,0l-16.7-16.7l-5.2-5.2"/>
		<path class="st0" d="M92.3,476.3c-0.5-0.4-0.9-0.8-1.3-1.2v0l-16.7-16.6l0-0.1L92.3,476.3z"/>
		<path class="st0" d="M257.9,408.3l-1.3-1.3l-0.1-0.1l-15.4-15.4l50.1-50.1l0,0l16.7,16.7l-16.7,16.7l-16.7,16.7L257.9,408.3
			L257.9,408.3z"/>
		<path class="st0" d="M324.8,341.5l-16.7-16.7l10.7-10.7c3.3-3.3,3.3-8.7,0-12L274.7,258l16.7-16.7l50.1,50.1
			c9.2,9.2,9.2,24.2,0,33.4c0,0,0,0,0,0l0,0L324.8,341.5z"/>
		<path class="st0" d="M169.3,453.1l5.2,5.2l16.7,16.7h0.1l16.6-16.6l0,0l16.7-16.7v-0.1l11.4-11.4l0,0l5.4-5.3l-16.7-16.7
			L207.9,425l-16.7,16.7l-10.7,10.7c-0.2,0.2-0.4,0.4-0.7,0.6"/>
		<path class="st0" d="M159.1,476.3c-0.4-0.4-0.9-0.8-1.3-1.2l-0.1,0l-16.7-16.7v0L159.1,476.3z"/>
		<path class="st0" d="M236.1,453.1l5.2,5.2l16.7,16.7l0,0l16.8-16.6v0l16.7-16.7v-0.1l11.4-11.4l5.3-5.3l-16.7-16.7L274.7,425
			l-16.7,16.7l-10.7,10.7c-0.2,0.2-0.4,0.4-0.6,0.6l0,0"/>
		<path class="st0" d="M225.8,476.2c-0.4-0.4-0.8-0.7-1.2-1.1l0,0l-16.7-16.7l0,0l16.7,16.5L225.8,476.2z"/>
		<path class="st0" d="M324.8,408.3l-16.7-16.7l10.7-10.7c3.3-3.3,3.3-8.7,0-12c0,0,0,0,0,0l-10.7-10.7l-16.7-16.7l-16.7-16.7
			l16.7-16.7l16.7,16.7l16.7,16.7l16.7,16.7c9.2,9.2,9.2,24.2,0,33.4l0,0L324.8,408.3z"/>
		<path class="st0" d="M321.2,440.9c-0.2-2-1.1-3.8-2.5-5.2l-5.4-5.4c0.3,0.2,0.5,0.4,0.8,0.7l4.7,4.7
			C320.2,437,321.1,438.9,321.2,440.9z"/>
		<path class="st0" d="M308.1,458.3l16.7,16.7l16.7-16.7l0,0c2.9-2.9,5.1-6.6,6.1-10.6c-1.1,4-3.2,7.7-6.1,10.7l-16.7,16.6l0,0
			L308.1,458.3z"/>
		<path class="st0" d="M292.6,476.3c-0.4-0.4-0.8-0.7-1.2-1.1l-0.1,0l-16.7-16.7v0L292.6,476.3z"/>
	</g>
	<g id="rounded_corners-2">
		<path class="st0" d="M57.6,842.5L7.4,792.4c-9.2-9.2-9.2-24.2,0-33.4c0,0,0,0,0,0l0,0l16.7-16.7L40.9,759l-10.7,10.7
			c-3.3,3.3-3.3,8.7,0,12l44.1,44.1L57.6,842.5z"/>
		<polygon class="st0" points="124.4,842.5 74.3,792.4 91,775.7 141.1,825.8 		"/>
		
			<rect x="162.7" y="773.7" transform="matrix(0.7071 -0.7071 0.7071 0.7071 -521.0102 360.3447)" class="st0" width="23.6" height="70.9"/>
		
			<rect x="95.8" y="706.8" transform="matrix(0.7071 -0.7071 0.7071 0.7071 -493.3391 293.5358)" class="st0" width="23.6" height="70.9"/>
		<path class="st0" d="M57.5,708.9L7.4,658.7c-9.2-9.2-9.2-24.2,0-33.4l0,0l16.7-16.7l16.7,16.7l-10.7,10.7c-3.3,3.3-3.3,8.7,0,12
			l44.1,44.1L57.5,708.9z"/>
		
			<rect x="229.5" y="773.7" transform="matrix(0.7071 -0.7071 0.7071 0.7071 -501.4411 407.5911)" class="st0" width="23.6" height="70.9"/>
		
			<rect x="162.7" y="706.8" transform="matrix(0.7071 -0.7071 0.7071 0.7071 -473.7641 340.7762)" class="st0" width="23.6" height="70.9"/>
		
			<rect x="95.8" y="640" transform="matrix(0.7071 -0.7071 0.7071 0.7071 -446.0901 273.9602)" class="st0" width="23.6" height="70.9"/>
		<path class="st0" d="M57.6,642.1L7.4,591.9c-9.2-9.2-9.2-24.2,0-33.4c0,0,0,0,0,0l0,0l16.7-16.7l16.7,16.7l-10.7,10.7
			c-3.3,3.3-3.3,8.7,0,12l44.1,44.1L57.6,642.1z"/>
		
			<rect x="229.5" y="706.8" transform="matrix(0.7071 -0.7071 0.7071 0.7071 -454.1977 388.0231)" class="st0" width="23.6" height="70.9"/>
		<polygon class="st0" points="191.2,708.9 141.1,658.8 157.8,642.1 207.9,692.2 		"/>
		
			<rect x="95.8" y="573.2" transform="matrix(0.7071 -0.7071 0.7071 0.7071 -398.8482 254.3958)" class="st0" width="23.6" height="70.9"/>
		<path class="st0" d="M57.5,575.2l-16.7-16.7l-16.7-16.7L7.4,525.1c-9.2-9.2-9.2-24.2,0-33.4c0,0,0,0,0,0l16.7-16.6l0,0l1.3,1.3
			l15.4,15.4l-10.7,10.7c-3.3,3.3-3.3,8.7,0,12l27.4,27.4l16.7,16.7L57.5,575.2z"/>
		<polygon class="st0" points="258,708.9 207.9,658.8 224.6,642.1 274.7,692.2 		"/>
		<polygon class="st0" points="191.2,642.1 141.1,591.9 157.8,575.2 207.9,625.4 		"/>
		
			<rect x="95.8" y="506.4" transform="matrix(0.7071 -0.7071 0.7071 0.7071 -351.6056 234.8258)" class="st0" width="23.6" height="70.9"/>
		<path class="st0" d="M57.6,441.6l-10.7-10.7c-0.2-0.2-0.5-0.5-0.8-0.7l-5.2-5.2l-16.7-16.7h0L7.4,391.6c-9.2-9.2-9.2-24.2,0-33.4
			c0,0,0,0,0,0l0,0l16.7-16.7l16.7,16.7l-10.7,10.7c-3.3,3.3-3.3,8.7,0,12l10.7,10.7L56.2,407l1.3,1.3L74.2,425L57.6,441.6z"/>
		<path class="st0" d="M57.5,408.3l-1.3-1.3C56.7,407.4,57.1,407.8,57.5,408.3L57.5,408.3l16.7,16.6l-0.1,0.1L57.5,408.3z"/>
		<path class="st0" d="M57.5,508.4l-32.1-32.1l-1.3-1.3L7.4,458.3c-5-5-7.5-12-6.8-19l0.1-1.1c0.1-0.7,0.2-1.4,0.4-2.1
			c0.1-0.2,0.1-0.5,0.2-0.8c0.1-0.5,0.3-1,0.4-1.4s0.3-0.8,0.5-1.2s0.3-0.7,0.5-1l0,0c0.2-0.3,0.3-0.7,0.5-1c0.3-0.6,0.6-1.1,1-1.7
			l0.4-0.5c0.8-1.2,1.8-2.3,2.8-3.4l0,0l16.7-16.7L40.8,425l-5.3,5.2l0,0l-5.4,5.4c-3,3-3.3,7.9-0.7,11.3c0.2,0.3,0.4,0.5,0.7,0.8
			l4.7,4.7c0.2,0.2,0.5,0.5,0.8,0.7l5.2,5.2L57.5,475l0,0l0,0l16.7,16.7L57.5,508.4z"/>
		<path class="st0" d="M3.2,430.6c-0.2,0.3-0.4,0.7-0.5,1c0.1-0.3,0.3-0.6,0.4-0.9L3.2,430.6z"/>
		<path class="st0" d="M2.7,431.6c0.1-0.3,0.3-0.6,0.4-0.9c1.1-2.2,2.5-4.1,4.3-5.8l16.7-16.7h0L7.4,425l0,0c-1,1-2,2.2-2.8,3.4
			l-0.4,0.5c-0.4,0.5-0.7,1.1-1,1.7C3.1,431,2.9,431.3,2.7,431.6z"/>
		<path class="st0" d="M0.7,438.2c0.1-0.7,0.2-1.4,0.4-2.1C1,436.8,0.9,437.5,0.7,438.2z"/>
		<path class="st0" d="M35.6,453.1c-0.3-0.2-0.5-0.4-0.8-0.7l-4.7-4.7c-0.2-0.2-0.5-0.5-0.7-0.8L35.6,453.1z"/>
		
			<rect x="229.5" y="573.2" transform="matrix(0.7071 -0.7071 0.7071 0.7071 -359.7082 348.8925)" class="st0" width="23.6" height="70.9"/>
		
			<rect x="162.7" y="506.4" transform="matrix(0.7071 -0.7071 0.7071 0.7071 -332.0298 282.0683)" class="st0" width="23.6" height="70.9"/>
		<path class="st0" d="M124.4,508.4l-50.1-50.1l16.6-16.6l10.7,10.7c0.3,0.3,0.5,0.5,0.8,0.7l0,0l5.2,5.2l16.7,16.7l0,0l16.7,16.7
			L124.4,508.4z"/>
		<path class="st0" d="M74.3,458.4L74.3,458.4l16.6-16.8l0,0l11.4,11.5c-0.3-0.2-0.6-0.4-0.8-0.7l-10.6-10.6L74.3,458.4z"/>
		<polygon class="st0" points="258,575.2 207.9,525.1 224.6,508.4 274.7,558.5 		"/>
		<polygon class="st0" points="191.2,541.8 174.5,525.1 174.5,525.1 191.2,508.4 207.9,491.7 224.6,475 225.8,476.2 225.9,476.4 
			241.3,491.7 224.6,508.4 		"/>
		<path class="st0" d="M191.2,508.4l-50.1-50.1l16.6-16.6l10.7,10.7c0.3,0.3,0.5,0.5,0.8,0.7l5.2,5.2l16.7,16.7h0.1l16.7,16.7
			L191.2,508.4z"/>
		<path class="st0" d="M141.1,458.4L141.1,458.4l16.7-16.7l0,0l11.4,11.4c-0.3-0.2-0.6-0.4-0.8-0.7l-10.7-10.7L141.1,458.4z"/>
		<path class="st0" d="M257.9,508.4l-16.7-16.7l-15.3-15.4l-0.1-0.1l-1.2-1.2l-16.7-16.7l16.7-16.7l10.7,10.7
			c0.2,0.2,0.5,0.5,0.8,0.7l0,0l5.2,5.2L258,475l16.7,16.7L257.9,508.4z"/>
		<path class="st0" d="M207.9,458.4L207.9,458.4l16.7-16.8l0,0l11.4,11.4c-0.3-0.2-0.6-0.4-0.8-0.7l-10.7-10.7L207.9,458.4z"/>
		<path class="st0" d="M124.4,441.6l-10.7-10.7c-0.2-0.2-0.5-0.5-0.8-0.7l-5.3-5.3l-16.7-16.7l0,0l-16.7-16.7l16.7-16.7L141,425
			L124.4,441.6z"/>
		<path class="st0" d="M123.1,407.1c0.4,0.4,0.8,0.7,1.2,1.1h0.1l16.7,16.7v0L123.1,407.1z"/>
		<path class="st0" d="M112.9,430.3l-5.3-5.3l-16.7-16.7l0,0L74.3,425l0,0.1l0,0l-16.6,16.6l0,0.1L46.2,453l0,0l-5.3,5.3L57.5,475
			l0,0l16.7-16.7l16.7-16.7l10.7-10.7c0.2-0.2,0.5-0.5,0.7-0.6"/>
		<polygon class="st0" points="57.6,541.8 40.8,525.1 57.5,508.4 74.3,491.7 90.9,475.1 91,475 107.7,491.7 90.9,508.4 74.3,525.1 
					"/>
		<path class="st0" d="M191.2,441.6l-10.7-10.7c-0.2-0.2-0.5-0.5-0.8-0.7l-5.2-5.3l-16.7-16.7l0,0l-16.7-16.7l16.7-16.7l32,32.1l0,0
			l1.3,1.3l16.7,16.7L191.2,441.6z"/>
		<path class="st0" d="M191.2,408.3l-1.3-1.3C190.3,407.4,190.7,407.8,191.2,408.3L191.2,408.3l16.7,16.6l-0.1,0.1L191.2,408.3z"/>
		<path class="st0" d="M169.2,430.3c-0.3,0.2-0.5,0.4-0.7,0.6l-10.7,10.7l-16.7,16.7L124.4,475l-16.7-16.7l5.3-5.3l0,0l11.3-11.3
			l0.1,0L141,425v0l16.6-16.6l0,0l16.8,16.7l5.2,5.2"/>
		<polygon class="st0" points="57.5,608.6 40.8,592 57.5,575.2 74.3,558.5 91,541.8 107.7,558.5 90.9,575.2 74.3,591.9 		"/>
		<polygon class="st0" points="124.4,541.8 107.7,525.1 124.4,508.4 141.1,491.7 157.7,475.1 157.8,475 174.5,491.7 157.8,508.4 
			141.1,525.1 		"/>
		<path class="st0" d="M274.6,425l-18-18c0.5,0.4,0.9,0.8,1.3,1.2l0,0l16.7,16.7L274.6,425z"/>
		<path class="st0" d="M246.5,430.3l-5.3-5.3l-16.7-16.7l0,0l-16.7,16.6l-0.1,0.1l-16.6,16.6l-0.1,0L179.8,453l-5.3,5.3l16.7,16.7
			l16.7-16.7l16.7-16.7l10.7-10.7c0.2-0.2,0.5-0.4,0.7-0.6l0,0"/>
		<polygon class="st0" points="57.5,675.5 40.8,658.8 57.6,642.1 74.3,625.4 91,608.6 107.7,625.4 		"/>
		<polygon class="st0" points="124.4,608.6 107.7,592 124.4,575.3 141.1,558.5 157.8,541.8 174.5,558.5 		"/>
		<path class="st0" d="M57.5,775.7L7.4,725.6c-9.2-9.2-9.2-24.2,0-33.4c0,0,0,0,0,0l0,0l16.7-16.7l16.7,16.7l-10.7,10.7
			c-3.3,3.3-3.3,8.7,0,12L74.3,759L57.5,775.7z"/>
		<polygon class="st0" points="124.4,675.5 107.7,658.8 124.4,642.1 141.1,625.4 157.8,608.6 174.5,625.4 		"/>
		<polygon class="st0" points="191.2,608.7 174.5,592 191.2,575.2 207.9,558.5 224.6,541.8 241.3,558.5 		"/>
		<polygon class="st0" points="258,541.8 241.3,525.1 274.7,491.7 291.3,475.1 291.4,475 308.1,491.7 291.4,508.4 274.7,525.1 		"/>
		<path class="st0" d="M324.8,475l-16.7-16.7l5.3-5.3c0.2-0.2,0.5-0.4,0.7-0.6l4.7-4.7c1.4-1.4,2.3-3.3,2.5-5.3c0.1-0.5,0.1-1,0-1.5
			c-0.2-2-1-3.9-2.5-5.3l-4.7-4.7c-0.2-0.2-0.5-0.5-0.8-0.7l-22-21.9l0,0l-16.7-16.7l16.7-16.7l50.1,50.1c0.5,0.5,1,1.1,1.5,1.7
			c0.1,0.2,0.3,0.3,0.4,0.5l0.4,0.5c0.4,0.6,0.8,1.1,1.2,1.7c0.2,0.3,0.4,0.6,0.5,0.9v0.1l0.3,0.6l0.3,0.5l0.3,0.6l0.2,0.4
			c0.1,0.3,0.2,0.5,0.3,0.8s0.2,0.7,0.4,1c0.1,0.3,0.2,0.7,0.3,1c0.1,0.3,0.2,0.7,0.3,1s0.1,0.7,0.2,1c0.1,0.7,0.2,1.4,0.3,2.1
			c0,0.4,0.1,0.7,0.1,1.1v1.1c0,0.4,0,0.8,0,1.2c0,0.7-0.1,1.4-0.2,2.2c-0.1,0.9-0.3,1.8-0.6,2.7c-1.1,4-3.2,7.7-6.1,10.6l0,0
			L324.8,475z"/>
		<path class="st0" d="M323.5,407c0.4,0.4,0.9,0.8,1.3,1.2l0,0l16.7,16.7c4.7,4.7,7.3,11.2,6.9,17.9c0.3-6.7-2.2-13.1-6.9-17.9
			L323.5,407z"/>
		<path class="st0" d="M313.4,453l5.4-5.4c1.4-1.4,2.3-3.2,2.5-5.2c-0.2,2-1,3.9-2.5,5.3l-4.7,4.7
			C313.9,452.6,313.6,452.8,313.4,453z"/>
		<path class="st0" d="M257.9,475l-16.7-16.7l5.4-5.3l0,0l28.1-28.1l16.6-16.7l0,0l16.7,16.7l-5.3,5.3c-0.2,0.2-0.5,0.4-0.7,0.6
			l-10.7,10.7l-16.7,16.7L257.9,475z"/>
		<polygon class="st0" points="324.8,475 308.1,458.3 324.8,475 		"/>
		<polygon class="st0" points="57.6,742.3 40.8,725.6 57.5,708.9 74.3,692.2 91,675.5 107.7,692.2 90.9,708.9 74.3,725.6 		"/>
		<polygon class="st0" points="124.4,742.3 107.7,725.6 124.4,708.9 141.1,692.2 157.8,675.5 174.5,692.2 		"/>
		<polygon class="st0" points="191.2,675.5 174.5,658.8 191.2,642.1 207.9,625.4 224.6,608.6 241.3,625.4 		"/>
		<polygon class="st0" points="258,608.6 241.3,591.9 258,575.2 274.7,558.5 291.4,541.8 308.1,558.5 		"/>
		<path class="st0" d="M324.8,541.8l-16.7-16.7l10.7-10.7c3.3-3.3,3.3-8.7,0-12l-44-44.1l16.6-16.6l10.7,10.7
			c0.3,0.3,0.5,0.5,0.8,0.7l5.2,5.2l16.7,16.7l0,0l16.7,16.7c9.2,9.2,9.2,24.2,0,33.4c0,0,0,0,0,0L324.8,541.8z"/>
		<path class="st0" d="M291.4,441.7l-16.6,16.6l0,0L291.4,441.7L291.4,441.7l11.5,11.4c-0.3-0.2-0.6-0.4-0.8-0.7L291.4,441.7z"/>
		<polygon class="st0" points="324.8,475 308.1,458.3 324.8,475 		"/>
		<polygon class="st0" points="57.5,809.1 40.8,792.4 57.5,775.7 74.3,759 91,742.3 107.7,759 		"/>
		<polygon class="st0" points="191.2,742.3 174.5,725.6 191.2,708.9 207.9,692.2 224.6,675.5 241.3,692.2 224.6,708.9 207.9,725.6 
					"/>
		<polygon class="st0" points="258,675.5 241.3,658.8 258,642.1 274.7,625.4 291.4,608.6 308.1,625.4 291.4,642.1 274.7,658.8 		"/>
		<path class="st0" d="M324.8,608.7L308.1,592l10.7-10.7c3.3-3.3,3.3-8.7,0-12l-44.1-44.1l16.7-16.7l50.1,50.1
			c9.2,9.2,9.2,24.2,0,33.4c0,0,0,0,0,0l0,0L324.8,608.7z"/>
		<polygon class="st0" points="124.4,809.1 107.7,792.4 124.4,775.7 141.1,759 157.8,742.3 174.5,759 157.8,775.7 141.1,792.4 		"/>
		<path class="st0" d="M24.1,875.9L7.4,859.2c-9.2-9.2-9.2-24.2,0-33.4l0,0l16.7-16.7l16.7,16.7l-10.7,10.7c-3.3,3.3-3.3,8.7,0,12
			l4.7,4.7c3.3,3.3,8.7,3.3,12,0l10.7-10.7l16.7-16.7l16.7-16.7l16.7,16.7l-16.7,16.7l-16.7,16.7l-16.7,16.7l0,0
			C48.3,885.1,33.4,885.1,24.1,875.9C24.1,875.9,24.1,875.9,24.1,875.9z"/>
		<polygon class="st0" points="191.2,809.1 174.5,792.4 191.2,775.7 207.9,759 224.6,742.3 241.3,759 		"/>
		<polygon class="st0" points="258,742.3 241.3,725.6 258,708.9 274.7,692.2 291.4,675.5 308.1,692.2 		"/>
		<path class="st0" d="M324.8,675.5l-16.7-16.7l10.7-10.7c3.3-3.3,3.3-8.7,0-12L274.7,592l16.7-16.7l50.1,50.1
			c9.2,9.2,9.2,24.2,0,33.4c0,0,0,0,0,0L324.8,675.5z"/>
		<path class="st0" d="M90.9,875.9l-16.7-16.7l16.7-16.7l10.7,10.7c3.3,3.3,8.7,3.3,12,0l10.7-10.7l16.7-16.7l16.7-16.7l16.7,16.7
			l-50.1,50.1C115.1,885.1,100.2,885.1,90.9,875.9z"/>
		<polygon class="st0" points="258,809.1 241.3,792.4 258,775.7 274.7,759 291.4,742.3 308.1,759 291.4,775.7 274.7,792.4 		"/>
		<path class="st0" d="M324.8,742.3l-16.7-16.7l10.7-10.7c3.3-3.3,3.3-8.7,0-12l-44.1-44.1l16.7-16.7l50.1,50.1
			c9.2,9.2,9.2,24.2,0,33.4c0,0,0,0,0,0l0,0L324.8,742.3z"/>
		<path class="st0" d="M157.8,875.9l-16.7-16.7l16.7-16.7l10.7,10.7c3.3,3.3,8.7,3.3,12,0l10.7-10.7l16.7-16.7l16.7-16.7l16.7,16.7
			l-16.7,16.7l-16.7,16.7l-16.7,16.7l0,0C182,885.1,167,885.1,157.8,875.9C157.8,875.9,157.8,875.9,157.8,875.9z"/>
		<path class="st0" d="M224.6,875.9l-16.7-16.7l16.7-16.7l10.7,10.7c3.3,3.3,8.7,3.3,12,0l10.7-10.7l16.7-16.7l16.7-16.7l16.7,16.7
			l-16.7,16.7l-16.7,16.7l-16.8,16.7l0,0C248.7,885.1,233.8,885.1,224.6,875.9z"/>
		<path class="st0" d="M324.8,809.1l-16.7-16.7l10.7-10.7c3.3-3.3,3.3-8.7,0-12l-44.1-44.1l16.7-16.7l50.1,50.1
			c9.2,9.2,9.2,24.2,0,33.4c0,0,0,0,0,0l0,0L324.8,809.1z"/>
		<path class="st0" d="M291.4,875.9l-16.7-16.7l16.7-16.7l10.7,10.7c3.3,3.3,8.7,3.3,12,0l4.7-4.7c3.3-3.3,3.3-8.7,0-12l-44.1-44.1
			l16.7-16.7l50.1,50.1c9.2,9.2,9.2,24.2,0,33.4c0,0,0,0,0,0l0,0l-16.7,16.7l0,0C315.6,885.1,300.6,885.1,291.4,875.9
			C291.4,875.9,291.4,875.9,291.4,875.9z"/>
	</g>
</g>
</svg>
